<svg width="20" height="20" viewBox="0 0 20 20" fill="none" xmlns="http://www.w3.org/2000/svg">
<path d="M7.5 13.7498C6.91667 13.7498 6.42361 13.5484 6.02083 13.1457C5.61806 12.7429 5.41667 12.2498 5.41667 11.6665C5.41667 11.0832 5.61806 10.5901 6.02083 10.1873C6.42361 9.78456 6.91667 9.58317 7.5 9.58317C8.08333 9.58317 8.57639 9.78456 8.97917 10.1873C9.38194 10.5901 9.58333 11.0832 9.58333 11.6665C9.58333 12.2498 9.38194 12.7429 8.97917 13.1457C8.57639 13.5484 8.08333 13.7498 7.5 13.7498ZM4.16667 18.3332C3.70833 18.3332 3.31597 18.17 2.98958 17.8436C2.66319 17.5172 2.5 17.1248 2.5 16.6665V4.99984C2.5 4.5415 2.66319 4.14914 2.98958 3.82275C3.31597 3.49637 3.70833 3.33317 4.16667 3.33317H5V1.6665H6.66667V3.33317H13.3333V1.6665H15V3.33317H15.8333C16.2917 3.33317 16.684 3.49637 17.0104 3.82275C17.3368 4.14914 17.5 4.5415 17.5 4.99984V16.6665C17.5 17.1248 17.3368 17.5172 17.0104 17.8436C16.684 18.17 16.2917 18.3332 15.8333 18.3332H4.16667ZM4.16667 16.6665H15.8333V8.33317H4.16667V16.6665Z" fill="#495E57"/>
</svg>
