<svg width="20" height="20" viewBox="0 0 20 20" fill="none" xmlns="http://www.w3.org/2000/svg">
<path fill-rule="evenodd" clip-rule="evenodd" d="M10 18.3334C5.40002 18.3334 1.66669 14.6084 1.66669 10.0001C1.66669 5.40008 5.40002 1.66675 10 1.66675C14.6084 1.66675 18.3334 5.40008 18.3334 10.0001C18.3334 14.6084 14.6084 18.3334 10 18.3334ZM12.6584 13.0917C12.7584 13.1501 12.8667 13.1834 12.9834 13.1834C13.1917 13.1834 13.4 13.0751 13.5167 12.8751C13.6917 12.5834 13.6 12.2001 13.3 12.0167L10.3334 10.2501V6.40008C10.3334 6.05008 10.05 5.77508 9.70835 5.77508C9.36669 5.77508 9.08335 6.05008 9.08335 6.40008V10.6084C9.08335 10.8251 9.20002 11.0251 9.39169 11.1417L12.6584 13.0917Z" fill="#495E57"/>
</svg>
