<svg width="20" height="20" viewBox="0 0 20 20" fill="none" xmlns="http://www.w3.org/2000/svg">
<path d="M5.625 6.0625C6.47375 6.0625 7.15625 5.38 7.15625 4.53125C7.15625 3.6825 6.47375 3 5.625 3C4.77625 3 4.09375 3.6825 4.09375 4.53125C4.09375 5.38 4.77625 6.0625 5.625 6.0625ZM7.375 17V12.625H8.25V8.6875C8.25 7.725 7.4625 6.9375 6.5 6.9375H4.75C3.7875 6.9375 3 7.725 3 8.6875V12.625H3.875V17H7.375Z" fill="#495E57"/>
<path d="M13.625 6.0625C14.4738 6.0625 15.1562 5.38 15.1562 4.53125C15.1562 3.6825 14.4738 3 13.625 3C12.7763 3 12.0938 3.6825 12.0938 4.53125C12.0938 5.38 12.7763 6.0625 13.625 6.0625ZM15.375 17V12.625H16.25V8.6875C16.25 7.725 15.4625 6.9375 14.5 6.9375H12.75C11.7875 6.9375 11 7.725 11 8.6875V12.625H11.875V17H15.375Z" fill="#495E57"/>
</svg>
