<svg width="19" height="24" viewBox="0 0 19 24" fill="none" xmlns="http://www.w3.org/2000/svg">
<path d="M7.79211 5.51401C7.90891 5.63081 8.06464 5.69408 8.22038 5.69408C8.37611 5.69408 8.53185 5.63568 8.64865 5.51401C8.88712 5.27554 8.88712 4.89107 8.64865 4.65259L6.97936 2.9833C6.74089 2.74483 6.35641 2.74483 6.11794 2.9833C5.87947 3.22177 5.87947 3.60624 6.11794 3.84471L7.78723 5.51401H7.79211Z" fill="#495E57"/>
<path d="M10.7365 5.69408C10.8922 5.69408 11.048 5.63568 11.1648 5.51401L12.8341 3.84471C13.0726 3.60624 13.0726 3.22177 12.8341 2.9833C12.5956 2.74483 12.2111 2.74483 11.9727 2.9833L10.3034 4.65259C10.0649 4.89107 10.0649 5.27554 10.3034 5.51401C10.4202 5.63081 10.5759 5.69408 10.7316 5.69408H10.7365Z" fill="#495E57"/>
<path d="M9.51496 3.5576C9.85077 3.5576 10.1233 3.28506 10.1233 2.94926V0.608345C10.1233 0.272538 9.85077 0 9.51496 0C9.17915 0 8.90662 0.272538 8.90662 0.608345V2.94926C8.90662 3.28506 9.17915 3.5576 9.51496 3.5576Z" fill="#495E57"/>
<path d="M0.487126 22.1097C0.487126 22.1097 0.827802 22.1924 1.21228 22.2654L4.7212 23.01C5.10081 23.1025 5.44635 23.1657 5.44635 23.1657C5.48529 23.1706 5.51936 23.1755 5.55342 23.1755H5.56316C5.89896 23.1755 6.1715 22.9029 6.1715 22.5671C6.1715 22.2557 5.9379 22.0026 5.64103 21.9637L4.97915 21.8225C4.97915 21.8225 4.97428 21.8225 4.96941 21.8225C4.96455 21.8225 4.95481 21.8177 4.94994 21.8177C4.5168 21.7106 4.36594 21.6473 4.33187 21.6279C4.1226 21.5208 3.94252 21.3504 3.87926 21.2531L4.15667 19.9537C4.17613 19.8661 4.1956 19.7736 4.21506 19.6812L4.36593 18.9706C4.36593 18.9706 4.36593 18.956 4.36593 18.9463C4.36593 18.9365 4.36594 18.9317 4.3708 18.9219C4.3708 18.9171 4.3708 18.9122 4.3708 18.9025C4.3708 18.8976 4.3708 18.8927 4.37567 18.8879C4.3854 18.8489 4.40487 18.7711 4.4584 18.6445V18.6397C4.4584 18.6397 4.47787 18.5959 4.48274 18.591C4.48274 18.5813 4.49247 18.5764 4.49734 18.5667C4.52167 18.5229 4.54113 18.4791 4.57034 18.4353V18.4304C4.6044 18.3769 4.6482 18.3233 4.692 18.2698C4.692 18.2698 4.70661 18.2503 4.71634 18.2406C4.71634 18.2406 4.72121 18.2309 4.72608 18.2309C4.76014 18.1968 4.79421 18.1579 4.83314 18.1189L4.89154 18.0703C4.93048 18.0362 4.96941 18.007 5.01321 17.9778L5.03755 17.9632L5.08621 17.934C5.13488 17.9048 5.18355 17.8805 5.23709 17.8561C5.23709 17.8561 5.30522 17.8221 5.31008 17.8221C5.39282 17.788 5.47555 17.7588 5.57289 17.7344C6.63871 17.4668 8.016 16.6346 8.54161 14.1817C8.58541 13.9724 8.62434 13.7534 8.66814 13.4906V13.4809C8.73141 13.077 8.78495 12.6487 8.82875 12.1961C9.05262 9.83084 8.92608 7.51913 8.92122 7.42179C8.90662 7.14925 8.70709 6.92051 8.43941 6.86211L4.35133 5.99583C4.08366 5.93743 3.81112 6.06883 3.68459 6.31217C3.64079 6.39977 2.5847 8.46328 1.82548 10.7117C1.67461 11.1595 1.54322 11.5877 1.44101 11.9917C1.38261 12.2107 1.32907 12.4297 1.28527 12.6438C0.764531 15.1015 1.68435 16.4204 2.55063 17.0969C2.62364 17.1553 2.6869 17.2186 2.75017 17.2818C2.75017 17.2818 2.75017 17.2867 2.75504 17.2867C2.7599 17.2916 2.76477 17.2964 2.76964 17.3062C2.77937 17.3208 2.7891 17.3305 2.79397 17.3354C2.82804 17.3792 2.86697 17.423 2.89617 17.4716L2.91564 17.5008L2.94484 17.5446C2.96917 17.5884 2.9935 17.6322 3.01784 17.676C3.01784 17.676 3.04218 17.7296 3.04704 17.7393C3.07138 17.7977 3.08598 17.8513 3.10544 17.8999C3.10544 17.9048 3.12004 17.9437 3.12004 17.9486C3.13951 18.0167 3.15411 18.0849 3.16384 18.1481V18.1579C3.16384 18.1579 3.16384 18.1725 3.16384 18.1773C3.16384 18.1773 3.16384 18.1773 3.16384 18.1822C3.16384 18.1871 3.16384 18.1968 3.16384 18.1968C3.16871 18.2455 3.17358 18.2893 3.17844 18.3331C3.17844 18.3331 3.17844 18.3525 3.17844 18.372C3.17844 18.372 3.17844 18.3963 3.17844 18.4012C3.17844 18.4985 3.17358 18.591 3.15898 18.6591C3.15898 18.664 3.15898 18.6689 3.15898 18.6786L3.14924 18.7224L2.99837 19.4329C2.99837 19.4329 2.99837 19.4329 2.99837 19.4378C2.81344 20.309 2.72584 20.7226 2.68204 20.927C2.67717 20.9611 2.67231 20.9854 2.66744 21.0049C2.5701 21.0682 2.33163 21.1509 2.06882 21.1655C1.99582 21.1655 1.81575 21.1558 1.43128 21.0828L0.735335 20.9319C0.409262 20.8638 0.0880511 21.0682 0.0150497 21.3894C-0.0579517 21.7155 0.141585 22.0367 0.462791 22.1145L0.487126 22.1097ZM4.58494 7.25632L7.74833 7.92793C7.76779 8.60928 7.79213 9.9525 7.69479 11.3736L3.23198 10.4246C3.72352 9.08622 4.28806 7.86467 4.58494 7.25145V7.25632Z" fill="#495E57"/>
<path d="M10.0843 7.39746C10.0795 7.4948 9.95293 9.81137 10.1768 12.1718C10.2206 12.6195 10.2741 13.0526 10.3374 13.4566C10.3374 13.4663 10.3374 13.4712 10.3374 13.4809C10.3374 13.4906 10.3374 13.5004 10.3374 13.5101C10.3715 13.7291 10.4153 13.9481 10.4591 14.1623C10.9847 16.6151 12.362 17.4473 13.4278 17.715C13.5008 17.7345 13.5689 17.7588 13.6468 17.788C13.6711 17.7977 13.6906 17.8026 13.7149 17.8172C13.7149 17.8172 13.7587 17.8367 13.7587 17.8415C13.8123 17.8659 13.8609 17.8902 13.9096 17.9243L13.9777 17.9681C14.0215 17.9973 14.0605 18.0265 14.1189 18.0751L14.1383 18.0897L14.1627 18.1092C14.2016 18.1433 14.2357 18.1822 14.2697 18.2163L14.2795 18.2309C14.2892 18.2406 14.2989 18.2552 14.3087 18.2601C14.3087 18.2649 14.3184 18.2747 14.3233 18.2795C14.3573 18.3233 14.3963 18.3671 14.4255 18.4158C14.4255 18.4158 14.4255 18.4158 14.4255 18.4207C14.4449 18.4499 14.4644 18.4888 14.4887 18.5326C14.5033 18.5569 14.5131 18.5813 14.5325 18.6153C14.5325 18.6153 14.5325 18.6202 14.5325 18.6251C14.5861 18.7467 14.6104 18.8295 14.6153 18.8684C14.6153 18.8781 14.6201 18.8927 14.6201 18.8976C14.6201 18.9122 14.6201 18.9219 14.625 18.9365L14.7077 19.3356L14.7759 19.652C14.7953 19.7493 14.8148 19.8418 14.8343 19.9294L15.1068 21.2191C15.0436 21.3164 14.8586 21.4867 14.6542 21.5938C14.6153 21.6133 14.4595 21.6814 13.9972 21.7933L13.3061 21.9393C12.9801 22.0075 12.7708 22.3238 12.834 22.6499C12.8925 22.9419 13.1455 23.1414 13.4327 23.1414C13.4667 23.1414 13.5057 23.1414 13.5397 23.1317C13.5397 23.1317 13.8853 23.0684 14.2649 22.976L17.7738 22.2313C18.1583 22.1583 18.499 22.0756 18.499 22.0756C18.8202 21.9977 19.0197 21.6717 18.9467 21.3505C18.8737 21.0244 18.5525 20.82 18.2264 20.893L17.5256 21.0439C17.1411 21.1169 16.9805 21.1266 16.854 21.1266C16.6204 21.112 16.3819 21.0293 16.2846 20.966L15.9536 19.4038C15.9536 19.4038 15.9536 19.4038 15.9536 19.3989L15.8028 18.6835C15.8028 18.6835 15.8028 18.6786 15.8028 18.6737C15.7979 18.6348 15.7979 18.5959 15.7833 18.5618C15.7784 18.5034 15.7736 18.4353 15.7736 18.3623V18.299C15.7736 18.2552 15.7784 18.2114 15.7882 18.1627C15.7882 18.1579 15.793 18.1141 15.793 18.1092C15.8028 18.0459 15.8174 17.9778 15.8368 17.9097C15.8368 17.9048 15.8417 17.8902 15.8466 17.8756C15.8466 17.8756 15.8466 17.861 15.8514 17.861C15.866 17.8075 15.8855 17.7588 15.9098 17.7053L15.9439 17.6323C15.9682 17.5885 15.9877 17.5447 16.012 17.5009L16.0218 17.4863L16.0607 17.423C16.0899 17.3792 16.124 17.3354 16.1629 17.2916C16.1629 17.2916 16.1775 17.277 16.1921 17.2575C16.1921 17.2575 16.197 17.2526 16.2018 17.2478C16.2067 17.2429 16.2164 17.2332 16.2164 17.2332C16.2748 17.1699 16.3381 17.1066 16.4111 17.0482C17.2774 16.3718 18.1972 15.0529 17.6765 12.5903C17.6327 12.3762 17.5791 12.1572 17.5207 11.9381C17.4137 11.5391 17.2871 11.1059 17.1363 10.6582C16.3819 8.40975 15.321 6.34624 15.2772 6.25864C15.1506 6.0153 14.8781 5.8839 14.6104 5.9423L10.5223 6.80859C10.2547 6.86699 10.0551 7.09572 10.0405 7.36826L10.0843 7.39746ZM11.2816 7.92794L14.4449 7.25633C14.7418 7.86954 15.3064 9.08623 15.7979 10.4295L11.3351 11.3785C11.2378 9.95251 11.2621 8.60929 11.2816 7.93281V7.92794Z" fill="#495E57"/>
</svg>
