<svg width="43" height="43" viewBox="0 0 43 43" fill="none" xmlns="http://www.w3.org/2000/svg">
<path d="M21.5 0C28.0244 0 33.8695 2.90665 37.8125 7.49512C37.3953 7.71501 36.9896 7.94082 36.5791 8.17871C30.1028 11.9708 24.5578 17.4179 20.6055 23.9229C20.5614 23.9956 20.5183 24.0696 20.4746 24.1426C18.0272 21.0396 14.4622 18.6925 10.6006 19.0479C9.70606 19.0565 8.83955 19.146 8 19.2812C8 20.0935 7.99902 20.9065 7.99902 21.7188C8.76069 21.8541 9.49896 22.0196 10.1934 22.2314C14.8193 23.5262 16.4834 27.2527 17.4873 31.8076C18.252 34.9573 21.886 35.2231 23.3262 32.3193C24.2193 30.6133 25.1664 28.939 26.165 27.291C29.6988 21.4862 33.8234 15.921 38.5762 10.6904C38.874 10.3662 39.1834 10.0378 39.4873 9.7207C41.7075 13.1041 43 17.1509 43 21.5C43 33.3741 33.3741 43 21.5 43C9.62588 43 0 33.3741 0 21.5C0 9.62588 9.62588 0 21.5 0Z" fill="#F4CE14"/>
</svg>
